<mxfile host="app.diagrams.net" modified="2024-05-18T22:46:44.343Z" agent="Mozilla/5.0 (Windows NT 10.0; Win64; x64) AppleWebKit/537.36 (KHTML, like Gecko) Chrome/124.0.0.0 Safari/537.36" version="24.4.4" etag="ndh20tVVRBjqL7Id0jRq" type="github">
  <diagram name="Page-1" id="H4bctxzRon1xctkExqDL">
    <mxGraphModel>
      <root>
        <mxCell id="0" />
        <mxCell id="1" parent="0" />
      </root>
    </mxGraphModel>
  </diagram>
</mxfile>
